<?xml version="1.0" encoding="UTF-8" standalone="no"?>
<svg width="30px" height="24px" viewBox="0 0 30 24" version="1.1" xmlns="http://www.w3.org/2000/svg" xmlns:xlink="http://www.w3.org/1999/xlink">
    <!-- Generator: Sketch 44.1 (41455) - http://www.bohemiancoding.com/sketch -->
    <title>icone adherents</title>
    <desc>Created with Sketch.</desc>
    <defs></defs>
    <g id="Symbols" stroke="none" stroke-width="1" fill="none" fill-rule="evenodd">
        <g id="sur-header-V03" transform="translate(-843.000000, -24.000000)" fill-rule="nonzero" fill="#0068A6">
            <g id="sur-header">
                <g id="BTN-Adherent" transform="translate(827.000000, 15.000000)">
                    <g id="icone-adherents" transform="translate(16.000000, 9.000000)">
                        <path d="M13.8107397,14.2258492 C15.4844799,13.0893341 16.5839844,11.1705389 16.5839844,8.99544271 C16.5839844,5.50601399 13.7561932,2.67773438 10.266276,2.67773438 C6.77542368,2.67773438 3.94856771,5.50556698 3.94856771,8.99544271 C3.94856771,11.1708823 5.04777387,13.089658 6.72155085,14.2260691 C2.69067816,15.4169436 0,18.6916627 0,23.2102865 L0,24 L20.5325521,24 L20.5325521,23.2102865 C20.5325521,18.6911368 17.8421431,15.4164877 13.8107397,14.2258492 Z" id="Combined-Shape"></path>
                        <path d="M22.9672015,20.6308594 L30,20.6308594 L30,19.8765038 C30,15.5596905 27.430049,12.4316576 23.5791441,11.2943278 C25.1779457,10.2086979 26.228222,8.37581315 26.228222,6.29810282 C26.228222,2.96490669 23.5270398,0.263257961 20.1933771,0.263257961 C18.414977,0.263257961 16.8169846,1.03157975 15.7128074,2.25439139 C17.8270223,3.23336179 19.3011209,5.44239438 19.3011209,8.0109439 C19.3011209,10.1782774 18.2508447,12.0902246 16.6520431,13.2226837 C20.0475317,14.2687679 22.4471278,16.9293082 22.9672015,20.6308594 Z" id="Combined-Shape-Copy"></path>
                    </g>
                </g>
            </g>
        </g>
    </g>
</svg>