<?xml version="1.0" encoding="UTF-8"?>
<svg width="28px" height="20px" viewBox="0 0 28 20" version="1.1" xmlns="http://www.w3.org/2000/svg" xmlns:xlink="http://www.w3.org/1999/xlink">
    <!-- Generator: Sketch 52.2 (67145) - http://www.bohemiancoding.com/sketch -->
    <title>ico/annonce</title>
    <desc>Created with Sketch.</desc>
    <g id="AGIPI-LOT-3" stroke="none" stroke-width="1" fill="none" fill-rule="evenodd">
        <g id="00-HP-_-EVOL-lot-3---D-POPIN-OFF" transform="translate(-108.000000, -860.000000)" fill="#C31981" fill-rule="nonzero">
            <path d="M120.245932,864.398353 C120.530656,864.221711 120.530656,864.221711 120.93431,863.971475 C121.646816,863.529875 122.360452,863.088272 123.028114,862.676093 L123.05543,862.659229 C125.528481,861.132605 126.122673,860.770081 126.224508,860.756929 C126.7989,860.685003 127.357675,861.181802 127.353093,861.758679 L127.353083,877.584925 C127.346914,878.287199 126.500057,878.79171 125.863836,878.453613 L120.087762,874.83053 L121.134146,877.917147 C121.348333,878.534602 120.831132,879.255602 120.179689,879.249977 L116.007914,879.249975 C115.584308,879.251493 115.184328,878.962905 115.052389,878.562528 L113.781498,874.817287 C111.021168,874.760516 108.75,872.447774 108.75,869.670516 C108.75,866.858735 111.07852,864.522676 113.885403,864.522676 L120.045609,864.522676 C120.077455,864.50291 120.130469,864.47001 120.245932,864.398353 Z M116.739425,877.242978 L118.782599,877.242978 L117.95523,874.818355 L115.911743,874.818355 L116.739425,877.242978 Z M121.320321,866.108429 L121.320321,873.22093 L125.346094,875.870771 L125.346094,863.458923 L121.320321,866.108429 Z M113.885403,866.529675 C112.197727,866.529675 110.756622,867.975184 110.756622,869.670516 C110.756622,871.365847 112.197727,872.811356 113.885403,872.811356 L119.313323,872.811356 L119.313323,866.529675 L113.885403,866.529675 Z M128.762169,873.537229 C128.873716,873.1316 129.2529,872.824368 129.673782,872.800004 C129.908723,872.78793 130.145278,872.861256 130.325973,872.999245 L132.946666,874.872283 C133.426118,875.160667 133.571378,875.858302 133.24684,876.313775 C132.922397,876.769625 132.21636,876.861094 131.801604,876.514308 L129.17033,874.63454 C128.821796,874.400329 128.651827,873.942662 128.762169,873.537229 Z M128.705432,869.717615 C128.681014,869.184501 129.130651,868.691495 129.662848,868.66712 C129.680077,868.666286 130.403375,868.666204 132.161272,868.666403 C132.785814,868.666482 132.785814,868.666482 133.363654,868.666577 C134.372729,868.666765 134.372729,868.666765 134.64433,868.66685 C135.181954,868.659729 135.662257,869.133149 135.662257,869.670516 C135.662257,870.208418 135.181689,870.681939 134.647641,870.673826 L129.757552,870.673531 C129.224506,870.699471 128.730353,870.250633 128.705432,869.717615 Z M129.623582,864.390452 C129.967406,864.151454 130.313268,863.912445 130.639006,863.689303 C130.664423,863.671894 130.664423,863.671894 130.68985,863.65449 C131.801925,862.893448 132.191262,862.638237 132.329877,862.627722 C132.771182,862.597863 133.204623,862.886127 133.347584,863.304364 C133.490439,863.722798 133.324181,864.216045 132.963126,864.457944 L130.34088,866.330264 C129.911676,866.688614 129.205183,866.597107 128.880706,866.14121 C128.558369,865.688113 128.69999,864.996279 129.172829,864.704685 C129.264938,864.6402 129.422086,864.530516 129.623582,864.390452 Z" id="ico/annonce"></path>
        </g>
    </g>
</svg>