<?xml version="1.0" encoding="UTF-8"?>
<svg width="38px" height="38px" viewBox="0 0 38 38" version="1.1" xmlns="http://www.w3.org/2000/svg" xmlns:xlink="http://www.w3.org/1999/xlink">
    <!-- Generator: Sketch 52.2 (67145) - http://www.bohemiancoding.com/sketch -->
    <title>Ico_axa.fr</title>
    <desc>Created with Sketch.</desc>
    <g id="AGIPI-LOT-2" stroke="none" stroke-width="1" fill="none" fill-rule="evenodd">
        <g id="220-espace-adh-D-axa.fr" transform="translate(-1249.000000, -187.000000)" fill="#FFFFFF">
            <g id="ancres" transform="translate(0.000000, 176.000000)">
                <g id="btn-axa" transform="translate(1244.000000, 6.000000)">
                    <path d="M24,43 C34.4934102,43 43,34.4934102 43,24 C43,13.5065898 34.4934102,5 24,5 C13.5065898,5 5,13.5065898 5,24 C5,34.4934102 13.5065898,43 24,43 Z M26.2647059,24.5 L29.3529412,21.4117647 L17,17 L21.4117647,29.3529412 L24.5,26.2647059 L30.2352941,32 L32,30.2352941 L26.2647059,24.5 Z M33.0606602,29.1746339 C33.6464466,29.7604204 33.6464466,30.7101679 33.0606602,31.2959543 L31.2959543,33.0606602 C30.7101679,33.6464466 29.7604204,33.6464466 29.1746339,33.0606602 L24.5,28.3860262 L22.4724249,30.4136013 C21.6937794,31.1922469 20.3695157,30.8944647 19.9991518,29.8574458 L15.5873871,17.5045046 C15.1616987,16.3125769 16.3125769,15.1616987 17.5045046,15.5873871 L29.8574458,19.9991518 C30.8944647,20.3695157 31.1922469,21.6937794 30.4136013,22.4724249 L28.3860262,24.5 L33.0606602,29.1746339 Z" id="Ico_axa.fr"></path>
                </g>
            </g>
        </g>
    </g>
</svg>