<?xml version="1.0" encoding="UTF-8" standalone="no"?>
<svg width="41px" height="41px" viewBox="0 0 41 41" version="1.1" xmlns="http://www.w3.org/2000/svg" xmlns:xlink="http://www.w3.org/1999/xlink">
    <!-- Generator: Sketch 46.2 (44496) - http://www.bohemiancoding.com/sketch -->
    <title>Btn modifier  Copy 7</title>
    <desc>Created with Sketch.</desc>
    <defs></defs>
    <g id="AGIPI" stroke="none" stroke-width="1" fill="none" fill-rule="evenodd">
        <g id="200--Mon-profil-D-V03-01" transform="translate(-1289.000000, -796.000000)">
            <g id="LAME-06" transform="translate(730.000000, 737.000000)">
                <rect id="Fond" fill="#FFFFFF" x="0" y="0" width="630" height="160"></rect>
                <g id="Btn-modifier" transform="translate(559.000000, 59.000000)">
                    <circle id="Oval" fill="#0068A6" cx="20.5" cy="20.5" r="20.5"></circle>
                    <g id="pen" transform="translate(19.500000, 21.500000) rotate(-315.000000) translate(-19.500000, -21.500000) translate(16.000000, 8.000000)" fill="#FFFFFF">
                        <path d="M0,0 L7,0 L7,22 L3.5,26.008667 L0,22 L0,0 Z M1.12365723,22.0235596 L3.46067309,24.7263184 L5.79768896,22.0235596 L1.12365723,22.0235596 Z M1,3.76025391 L1,21.3984375 L2,21.3984375 L2,3.76025391 L1,3.76025391 Z M1,1 L1,3 L6,3 L6,1 L1,1 Z M3,3.76025391 L3,21.3984375 L4,21.3984375 L4,3.76025391 L3,3.76025391 Z M5,3.76025391 L5,21.3984375 L6,21.3984375 L6,3.76025391 L5,3.76025391 Z" id="Combined-Shape"></path>
                    </g>
                </g>
            </g>
        </g>
    </g>
</svg>
