<?xml version="1.0" encoding="UTF-8" standalone="no"?>
<svg width="30px" height="24px" viewBox="0 0 30 24" version="1.1" xmlns="http://www.w3.org/2000/svg" xmlns:xlink="http://www.w3.org/1999/xlink">
    <!-- Generator: Sketch 45.1 (43504) - http://www.bohemiancoding.com/sketch -->
    <title>Picto adh/cons</title>
    <desc>Created with Sketch.</desc>
    <defs>
        <filter x="-1.2%" y="-3.3%" width="102.5%" height="113.3%" filterUnits="objectBoundingBox" id="filter-1">
            <feOffset dx="0" dy="2" in="SourceAlpha" result="shadowOffsetOuter1"></feOffset>
            <feGaussianBlur stdDeviation="1" in="shadowOffsetOuter1" result="shadowBlurOuter1"></feGaussianBlur>
            <feColorMatrix values="0 0 0 0 0   0 0 0 0 0   0 0 0 0 0  0 0 0 0.1 0" type="matrix" in="shadowBlurOuter1" result="shadowMatrixOuter1"></feColorMatrix>
            <feMerge>
                <feMergeNode in="shadowMatrixOuter1"></feMergeNode>
                <feMergeNode in="SourceGraphic"></feMergeNode>
            </feMerge>
        </filter>
    </defs>
    <g id="AGIPI" stroke="none" stroke-width="1" fill="none" fill-rule="evenodd">
        <g id="00-a-home-M-V0402-" transform="translate(-263.000000, -18.000000)">
            <g id="STICKY" filter="url(#filter-1)" fill="#FFFFFF">
                <rect id="Rectangle-6" x="0" y="0" width="320" height="60"></rect>
            </g>
            <g id="Picto-adh/cons" transform="translate(263.000000, 18.000000)" fill-rule="nonzero">
                <path d="M13.8107397,13.9625913 C15.4844799,12.8260761 16.5839844,10.9072809 16.5839844,8.73218475 C16.5839844,5.24275603 13.7561932,2.41447641 10.266276,2.41447641 C6.77542368,2.41447641 3.94856771,5.24230902 3.94856771,8.73218475 C3.94856771,10.9076243 5.04777387,12.8264001 6.72155085,13.9628111 C2.69067816,15.1536856 0,18.4284048 0,22.9470285 L0,23.736742 L20.5325521,23.736742 L20.5325521,22.9470285 C20.5325521,18.4278789 17.8421431,15.1532297 13.8107397,13.9625913 Z" id="Combined-Shape" fill="#0068A6"></path>
                <path d="M22.9672015,20.3676014 L30,20.3676014 L30,19.6132458 C30,15.2964326 27.430049,12.1683996 23.5791441,11.0310698 C25.1779457,9.94543998 26.228222,8.11255519 26.228222,6.03484486 C26.228222,2.70164873 23.5270398,-7.10542736e-14 20.1933771,-7.10542736e-14 C18.414977,-7.10542736e-14 16.8169846,0.768321792 15.7128074,1.99113343 C17.8270223,2.97010383 19.3011209,5.17913642 19.3011209,7.74768594 C19.3011209,9.91501942 18.2508447,11.8269667 16.6520431,12.9594257 C20.0475317,14.00551 22.4471278,16.6660502 22.9672015,20.3676014 Z" id="Combined-Shape-Copy" fill="#C31981"></path>
            </g>
        </g>
    </g>
</svg>