<?xml version="1.0" encoding="UTF-8" standalone="no"?>
<svg width="75px" height="66px" viewBox="0 0 75 66" version="1.1" xmlns="http://www.w3.org/2000/svg" xmlns:xlink="http://www.w3.org/1999/xlink">
    <!-- Generator: Sketch 44.1 (41455) - http://www.bohemiancoding.com/sketch -->
    <title>Logo AGIPI 75x66</title>
    <desc>Created with Sketch.</desc>
    <defs></defs>
    <g id="Symbols" stroke="none" stroke-width="1" fill="none" fill-rule="evenodd">
        <g id="Logo-AGIPI-75x66">
            <g id="logo/couleur">
                <path d="M37.6331325,0.290642202 C26.6728916,0.290642202 16.0385542,2.44866055 6.02650602,6.70505505 C4.0689759,7.5373211 2.15421687,8.44588073 0.279518072,9.42225688 L0.279518072,17.0855229 C11.5060241,10.524578 24.3009036,7.02324771 37.6331325,7.02324771 C50.8521084,7.02324771 63.5430723,10.4640275 74.7006024,16.9181009 L74.7006024,9.27118349 C72.9174699,8.35172477 71.0972892,7.49523853 69.2394578,6.70505505 C59.2268072,2.44866055 48.5930723,0.290642202 37.6331325,0.290642202" id="Fill-1" fill="#0B69A5"></path>
                <path d="M37.3478916,65.9025138 C48.3075301,65.9025138 58.9415663,63.7438899 68.9542169,59.4871927 C70.9108434,58.6552294 72.826506,57.7466697 74.7006024,56.7705963 L74.7006024,49.1070275 C63.4743976,55.6682752 50.6795181,59.1693028 37.3478916,59.1693028 C24.1286145,59.1693028 11.4373494,55.7285229 0.279819277,49.275055 L0.279819277,56.9216697 C2.06295181,57.8408257 3.88343373,58.6976147 5.74096386,59.4871927 C15.7533133,63.7438899 26.3876506,65.9025138 37.3478916,65.9025138" id="Fill-2" fill="#0B69A5"></path>
                <path d="M13.821988,34.5991376 L11.0864458,27.8877248 L8.35090361,34.5991376 L13.821988,34.5991376 Z M9.05692771,22.4185046 L13.2337349,22.4185046 L22.0578313,43.261789 L17.321988,43.261789 L15.439759,38.6205963 L6.73313253,38.6205963 L4.85060241,43.261789 L0.23253012,43.261789 L9.05692771,22.4185046 L9.05692771,22.4185046 Z" id="Fill-3" fill="#272D3C"></path>
                <path d="M21.4539157,32.973055 L21.4539157,32.9140183 C21.4539157,27.0303303 26.0129518,22.2117248 32.2487952,22.2117248 C35.9551205,22.2117248 38.1903614,23.2165596 40.3373494,25.0500275 L37.485241,28.5092752 C35.8966867,27.1783761 34.4843373,26.4093853 32.1018072,26.4093853 C28.8072289,26.4093853 26.189759,29.337 26.189759,32.8549817 L26.189759,32.9140183 C26.189759,36.6987248 28.778012,39.4776881 32.4256024,39.4776881 C34.0728916,39.4776881 35.5430723,39.0635229 36.6903614,38.2357982 L36.6903614,35.2791193 L32.1313253,35.2791193 L32.1313253,31.3472752 L41.0728916,31.3472752 L41.0728916,40.3347798 C38.9551205,42.1379725 36.0433735,43.6166147 32.2786145,43.6166147 C25.8659639,43.6166147 21.4539157,39.0934954 21.4539157,32.973055" id="Fill-4" fill="#272D3C"></path>
                <path d="M60.0740964,33.0027248 C62.338253,33.0027248 63.6620482,31.6427615 63.6620482,29.868633 L63.6620482,29.8098991 C63.6620482,27.7699541 62.2506024,26.6761101 59.9858434,26.6761101 L56.4855422,26.6761101 L56.4855422,33.0027248 L60.0740964,33.0027248 Z M51.9557229,22.5665505 L60.3680723,22.5665505 C65.2804217,22.5665505 68.2512048,25.4932569 68.2512048,29.7214954 L68.2512048,29.7799266 C68.2512048,34.5697706 64.5451807,37.0535505 59.9271084,37.0535505 L56.4855422,37.0535505 L56.4855422,43.261789 L51.9557229,43.261789 L51.9557229,22.5665505 L51.9557229,22.5665505 Z" id="Fill-5" fill="#272D3C"></path>
                <polygon id="Fill-6" fill="#272D3C" points="43.9849398 43.261789 48.4560241 43.261789 48.4560241 22.5411193 43.9849398 22.5411193"></polygon>
                <polygon id="Fill-7" fill="#272D3C" points="70.163253 43.261789 74.6343373 43.261789 74.6343373 22.5411193 70.163253 22.5411193"></polygon>
            </g>
        </g>
    </g>
</svg>