<?xml version="1.0" encoding="UTF-8" standalone="no"?>
<svg width="76px" height="66px" viewBox="0 0 76 66" version="1.1" xmlns="http://www.w3.org/2000/svg" xmlns:xlink="http://www.w3.org/1999/xlink">
    <!-- Generator: Sketch 42 (36781) - http://www.bohemiancoding.com/sketch -->
    <title>Logo</title>
    <desc>Created with Sketch.</desc>
    <defs></defs>
    <g id="AGIPI" stroke="none" stroke-width="1" fill="none" fill-rule="evenodd">
        <g id="00-c-home-D" transform="translate(-80.000000, -92.000000)" fill="#FFFFFF">
            <g id="menu" transform="translate(80.000000, 92.000000)">
                <path d="M60.5048219,32.9055916 C62.7940734,32.9055916 64.1325409,31.5375834 64.1325409,29.7529601 L64.1325409,29.6938787 C64.1325409,27.6418664 62.7054513,26.5415517 60.4155908,26.5415517 L56.8764939,26.5415517 L56.8764939,32.9055916 L60.5048219,32.9055916 Z M52.2964682,22.4076819 L60.8020561,22.4076819 C65.7688517,22.4076819 68.7725616,25.3517013 68.7725616,29.6049521 L68.7725616,29.6637289 C68.7725616,34.4819074 65.0254617,36.98038 60.3562048,36.98038 L56.8764939,36.98038 L56.8764939,43.2253435 L52.2964682,43.2253435 L52.2964682,22.4076819 Z M8.92220305,22.2587602 L13.145304,22.2587602 L22.0672025,43.2253435 L17.2788693,43.2253435 L15.3757787,38.5566958 L6.57265202,38.5566958 L4.66925682,43.2253435 L0,43.2253435 L8.92220305,22.2587602 Z M13.740077,34.5114481 L10.9742153,27.7603337 L8.20835371,34.5114481 L13.740077,34.5114481 Z M37.815133,0 C48.8965476,0 59.6481418,2.17078415 69.7717679,6.45235744 C71.6501906,7.24721528 73.4905453,8.10876808 75.2934412,9.03366587 L75.2934412,16.7258188 C64.0122463,10.2335662 51.1806218,6.77243238 37.815133,6.77243238 C24.335136,6.77243238 11.3984441,10.2944748 0.0475087441,16.8942312 L0.0475087441,9.18563294 C1.94298582,8.20348102 3.87896714,7.28954678 5.8581936,6.45235744 C15.9812106,2.17078415 26.7334139,0 37.815133,0 Z M37.5267306,66 C26.4450115,66 15.6928082,63.8286068 5.56948661,59.5467289 C3.69136851,58.7524802 1.85070922,57.8906228 0.0478132873,56.9660296 L0.0478132873,49.2741812 C11.3290082,55.7658247 24.1609373,59.2269585 37.5267306,59.2269585 C51.0061186,59.2269585 63.9428105,55.7052206 75.2934412,49.1051597 L75.2934412,56.8140625 C73.3985733,57.7959099 71.4616783,58.7098441 69.4833655,59.5467289 C59.3597394,63.8286068 48.6078406,66 37.5267306,66 Z M21.4565934,32.8757464 L21.4565934,32.8163604 C21.4565934,26.8978673 26.0661597,22.0507572 32.3711182,22.0507572 C36.1185227,22.0507572 38.378538,23.0615362 40.5493222,24.90585 L37.6656023,28.385561 C36.0594413,27.0467889 34.6314381,26.2732491 32.2225011,26.2732491 C28.8914073,26.2732491 26.2449266,29.2181822 26.2449266,32.7569745 L26.2449266,32.8163604 C26.2449266,36.6234554 28.8618666,39.4188577 32.5498851,39.4188577 C34.215432,39.4188577 35.7019075,39.0022425 36.8619127,38.1696214 L36.8619127,35.1954522 L32.2523464,35.1954522 L32.2523464,31.2403492 L41.2930167,31.2403492 L41.2930167,40.2810196 C39.1517733,42.0948791 36.2077539,43.5822682 32.401268,43.5822682 C25.9175426,43.5822682 21.4565934,39.0323923 21.4565934,32.8757464 Z M44.2373407,43.2253435 L44.2373407,22.3821002 L48.7579804,22.3821002 L48.7579804,43.2253435 L44.2373407,43.2253435 Z M70.705802,43.2253435 L70.705802,22.3821002 L75.2264417,22.3821002 L75.2264417,43.2253435 L70.705802,43.2253435 Z" id="Logo"></path>
            </g>
        </g>
    </g>
</svg>