<?xml version="1.0" encoding="UTF-8" standalone="no"?>
<svg width="15px" height="22px" viewBox="0 0 15 22" version="1.1" xmlns="http://www.w3.org/2000/svg" xmlns:xlink="http://www.w3.org/1999/xlink">
    <!-- Generator: Sketch 44.1 (41455) - http://www.bohemiancoding.com/sketch -->
    <title>CADENAS</title>
    <desc>Created with Sketch.</desc>
    <defs></defs>
    <g id="AGIPI" stroke="none" stroke-width="1" fill="none" fill-rule="evenodd">
        <g id="00-a-home-M-V0401" transform="translate(-279.000000, -19.000000)" fill="#0068A6">
            <g id="CADENAS" transform="translate(279.000000, 19.000000)">
                <path d="M0,10 L15,10 L15,16.8571429 C15,19.4285714 12.1875,22 9.375,22 L5.625,22 C2.8125,22 0,19.4285714 0,16.8571429 L0,10 Z M7.5,13 C6.67157288,13 6,13.6715729 6,14.5 L6,16.5 C6,17.3284271 6.67157288,18 7.5,18 C8.32842712,18 9,17.3284271 9,16.5 L9,14.5 C9,13.6715729 8.32842712,13 7.5,13 Z" id="Combined-Shape"></path>
                <path d="M1.875,5.15 L1.875,8.58333333 L3.75,8.58333333 L3.75,5.83666667 C3.75,3.5535 5.4375,1.71666667 7.5,1.71666667 C9.5625,1.71666667 11.25,3.5535 11.25,5.83666667 L11.25,8.58333333 L13.125,8.58333333 L13.125,5.15 C13.125,2.30033333 10.6125,0 7.5,0 C4.3875,0 1.875,2.30033333 1.875,5.15 L1.875,5.15 Z" id="Shape"></path>
            </g>
        </g>
    </g>
</svg>