<?xml version="1.0" encoding="UTF-8"?>
<svg width="24px" height="24px" viewBox="0 0 24 24" version="1.1" xmlns="http://www.w3.org/2000/svg" xmlns:xlink="http://www.w3.org/1999/xlink">
    <!-- Generator: Sketch 42 (36781) - http://www.bohemiancoding.com/sketch -->
    <title>Stroke 457</title>
    <desc>Created with Sketch.</desc>
    <defs></defs>
    <g id="AGIPI" stroke="none" stroke-width="1" fill="none" fill-rule="evenodd" stroke-linecap="round" stroke-linejoin="round">
        <g id="31-a-Page-UC-M" transform="translate(-80.000000, -3545.000000)" stroke="#0068A6">
            <g id="conseilé" transform="translate(0.000000, 3320.000000)">
                <g id="btn-contact" transform="translate(70.000000, 213.000000)">
                    <g id="Group-658" transform="translate(11.000000, 13.000000)">
                        <path d="M8.08604948,6.40225 C8.98804948,5.49925 8.98804948,4.03425 8.08604948,3.13125 L5.63204948,0.67725 C4.72904948,-0.22575 3.26404948,-0.22575 2.36004948,0.67725 L1.01604948,2.02325 C-0.151950525,3.19125 -0.332950525,5.01125 0.577049475,6.38825 C4.48604948,12.29825 9.70104948,17.51325 15.6110495,21.42325 C16.9860495,22.33225 18.8130495,22.15025 19.9770495,20.98525 L21.3220495,19.63925 C22.2260495,18.73625 22.2260495,17.27125 21.3220495,16.36925 L18.8690495,13.91625 C17.9670495,13.01125 16.5020495,13.01125 15.5980495,13.91625 L14.7800495,14.73325 C12.0900495,12.52925 9.47204948,9.91025 7.26804948,7.21925 L8.08604948,6.40225 L8.08604948,6.40225 Z" id="Stroke-457"></path>
                    </g>
                </g>
            </g>
        </g>
    </g>
</svg>
