<?xml version="1.0" ?><!DOCTYPE svg  PUBLIC '-//W3C//DTD SVG 1.1//EN'  'http://www.w3.org/Graphics/SVG/1.1/DTD/svg11.dtd'><svg enable-background="new 0 0 100 100" height="100px" id="Layer_1" version="1.1" viewBox="0 0 100 100" width="100px" xml:space="preserve" xmlns="http://www.w3.org/2000/svg" xmlns:xlink="http://www.w3.org/1999/xlink" style="fill:#0068A6"><g><path d="M93.412,27.008H73.646v-9.625L59.804,7H25.529v19.932L6.588,26.901v41.393h15.647v9.059h3.294V93h48.117V77.353h3.295   v-9.059h16.471V27.008z M60.471,10l9.176,6.882h-9.176V10z M58.471,9v8.882c0,0.552,0.447,1,1,1h12.176v14.47H27.529V9H58.471z    M24.235,75.353V57.588h1.294v17.765H24.235z M27.529,91V57.588h44.117V91H27.529z M74.941,75.353h-1.295V57.588h1.295V75.353z    M91.412,66.294H76.941V55.588H22.235v10.706H8.588v-37.39l16.941,0.028v4.421h-2.294v2h52.706v-2h-2.295v-4.345h17.766V66.294z"/><circle cx="13.354" cy="34.25" r="1.647"/><rect height="2" width="16.471" x="49.588" y="81.117"/><rect height="2" width="32.941" x="33.117" y="74.529"/><rect height="2" width="32.941" x="33.117" y="67.941"/><rect height="2" width="32.941" x="33.117" y="61.353"/></g></svg>
