<?xml version="1.0" encoding="UTF-8"?>
<svg width="32px" height="27px" viewBox="0 0 32 27" version="1.1" xmlns="http://www.w3.org/2000/svg" xmlns:xlink="http://www.w3.org/1999/xlink">
    <!-- Generator: Sketch 42 (36781) - http://www.bohemiancoding.com/sketch -->
    <title>Combined Shape</title>
    <desc>Created with Sketch.</desc>
    <defs></defs>
    <g id="Symbols" stroke="none" stroke-width="1" fill="none" fill-rule="evenodd">
        <g id="sur-header" transform="translate(-1155.000000, -23.000000)" fill-rule="nonzero" fill="#FFFFFF">
            <g id="Group-3">
                <g transform="translate(1134.000000, 15.000000)">
                    <path d="M47.5,27.5 L47.5,29.5 C47.5,29.7761424 47.2761424,30 47,30 C46.7238576,30 46.5,29.7761424 46.5,29.5 L46.5,27.5 L44.5,27.5 C44.2238576,27.5 44,27.2761424 44,27 C44,26.7238576 44.2238576,26.5 44.5,26.5 L46.5,26.5 L46.5,24.5 C46.5,24.2238576 46.7238576,24 47,24 C47.2761424,24 47.5,24.2238576 47.5,24.5 L47.5,26.5 L49.5,26.5 C49.7761424,26.5 50,26.7238576 50,27 C50,27.2761424 49.7761424,27.5 49.5,27.5 L47.5,27.5 Z M47,34 L47,35 L21,35 L21,34 C21,28.2781484 24.4071572,24.1314306 29.5113785,22.6234478 C27.3919049,21.184431 26,18.7547199 26,16 C26,11.5808334 29.5795967,8 34,8 C38.419219,8 42,11.5813994 42,16 C42,18.754285 40.6077174,21.1840207 38.4882904,22.6231694 C39.3369375,22.8738096 40.1386558,23.1973806 40.8855951,23.5889985 C40.5605211,24.1705627 40.3160138,24.8033029 40.1671694,25.472123 C38.449879,24.5183569 36.3516617,24 34,24 C27.9067125,24 23.5136026,27.4816513 23.042055,33 L43.3919372,33 C44.4455251,33.6348361 45.6800432,34 47,34 Z M40,16 C40,12.6858916 37.3145722,10 34,10 C30.6843209,10 28,12.6852482 28,16 C28,19.313645 30.6849636,22 34,22 C37.3139294,22 40,19.3130015 40,16 Z M52.5,27 C52.5,30.0381424 50.0381424,32.5 47,32.5 C43.9618576,32.5 41.5,30.0381424 41.5,27 C41.5,23.9618576 43.9618576,21.5 47,21.5 C50.0381424,21.5 52.5,23.9618576 52.5,27 Z M51.5,27 C51.5,24.5141424 49.4858576,22.5 47,22.5 C44.5141424,22.5 42.5,24.5141424 42.5,27 C42.5,29.4858576 44.5141424,31.5 47,31.5 C49.4858576,31.5 51.5,29.4858576 51.5,27 Z" id="Combined-Shape"></path>
                </g>
            </g>
        </g>
    </g>
</svg>
