<?xml version="1.0" encoding="UTF-8"?>
<svg width="26px" height="27px" viewBox="0 0 26 27" version="1.1" xmlns="http://www.w3.org/2000/svg" xmlns:xlink="http://www.w3.org/1999/xlink">
    <!-- Generator: Sketch 42 (36781) - http://www.bohemiancoding.com/sketch -->
    <title>Group 297</title>
    <desc>Created with Sketch.</desc>
    <defs></defs>
    <g id="AGIPI" stroke="none" stroke-width="1" fill="none" fill-rule="evenodd">
        <g id="40-a-Article-riche-D" transform="translate(-887.000000, -23.000000)" fill-rule="nonzero" fill="#0068A6">
            <g id="sur-header">
                <g id="Group-8" transform="translate(866.000000, 15.000000)">
                    <g id="Group-297" transform="translate(21.000000, 8.000000)">
                        <path d="M17.4882904,14.6231694 C22.5931837,16.1308533 26,20.2774824 26,26 L26,27 L0,27 L0,26 C0,20.2781484 3.40715718,16.1314306 8.51137849,14.6234478 C6.39190491,13.184431 5,10.7547199 5,8 C5,3.58083337 8.57959668,0 13,0 C17.419219,0 21,3.58139942 21,8 C21,10.754285 19.6077174,13.1840207 17.4882904,14.6231694 Z M13,16 C6.90671254,16 2.51360255,19.4816513 2.04205502,25 L23.9579612,25 C23.4865521,19.4812102 19.0943239,16 13,16 Z M19,8 C19,4.6858916 16.3145722,2 13,2 C9.68432086,2 7,4.68524825 7,8 C7,11.313645 9.68496361,14 13,14 C16.3139294,14 19,11.3130015 19,8 Z" id="Combined-Shape"></path>
                    </g>
                </g>
            </g>
        </g>
    </g>
</svg>