<?xml version="1.0" encoding="UTF-8"?>
<svg width="26px" height="26px" viewBox="0 0 26 26" version="1.1" xmlns="http://www.w3.org/2000/svg" xmlns:xlink="http://www.w3.org/1999/xlink">
    <!-- Generator: Sketch 42 (36781) - http://www.bohemiancoding.com/sketch -->
    <title>Stroke 4679</title>
    <desc>Created with Sketch.</desc>
    <defs></defs>
    <g id="AGIPI" stroke="none" stroke-width="1" fill="none" fill-rule="evenodd">
        <g id="00-a-home-D" transform="translate(-1334.000000, -112.000000)" fill-rule="nonzero" fill="#707583">
            <g id="menu" transform="translate(80.000000, 92.000000)">
                <g id="Stroke-4679" transform="translate(1255.000000, 21.000000)">
                    <path d="M18.9526077,17.539567 L24.9145135,23.4994614 L23.5005386,24.9139135 L17.5382911,18.9536776 C15.6308817,20.5435072 13.1770951,21.5 10.5,21.5 C4.42504514,21.5 -0.5,16.5746147 -0.5,10.5 C-0.5,4.42538534 4.42504514,-0.5 10.5,-0.5 C16.5749549,-0.5 21.5,4.42538534 21.5,10.5 C21.5,13.1776079 20.5430997,15.6319288 18.9526077,17.539567 Z M19.5,10.5 C19.5,5.52992391 15.4703544,1.5 10.5,1.5 C5.52964556,1.5 1.5,5.52992391 1.5,10.5 C1.5,15.4700761 5.52964556,19.5 10.5,19.5 C15.4703544,19.5 19.5,15.4700761 19.5,10.5 Z" id="Combined-Shape"></path>
                </g>
            </g>
        </g>
    </g>
</svg>
