<?xml version="1.0" encoding="UTF-8" standalone="no"?>
<svg width="19px" height="19px" viewBox="0 0 19 19" version="1.1" xmlns="http://www.w3.org/2000/svg" xmlns:xlink="http://www.w3.org/1999/xlink">
    <!-- Generator: Sketch 46.2 (44496) - http://www.bohemiancoding.com/sketch -->
    <title>tooltip</title>
    <desc>Created with Sketch.</desc>
    <defs></defs>
    <g id="AGIPI" stroke="none" stroke-width="1" fill="none" fill-rule="evenodd">
        <g id="230_Gestion-Adhésion-Situation_D" transform="translate(-600.000000, -2460.000000)">
            <g id="LAME-04" transform="translate(370.000000, 2076.000000)">
                <g id="tableau-echéancier-01" transform="translate(47.000000, 175.000000)">
                    <g id="tooltip" transform="translate(183.000000, 209.000000)">
                        <g>
                            <circle id="Oval" fill="#C31981" cx="9.5" cy="9.5" r="9.5"></circle>
                            <path d="M10.6500488,7.51360872 C10.6500488,6.72538073 10.4287918,6.58709512 9.6682209,6.58709512 L8.27153621,6.58709512 C7.82902225,6.58709512 7.35885117,6.68389504 7.35885117,7.25086606 C7.35885117,7.83166563 7.88433649,7.914637 8.27153621,7.914637 L9.32250687,7.914637 L9.32250687,12.7131478 L8.27153621,12.7131478 C7.82902225,12.7131478 7.35885117,12.8099477 7.35885117,13.3769187 C7.35885117,13.9577183 7.88433649,14.0406897 8.27153621,14.0406897 L11.6457052,14.0406897 C12.0329049,14.0406897 12.5583902,13.9577183 12.5583902,13.3769187 C12.5583902,12.8099477 12.0882191,12.7131478 11.6457052,12.7131478 L10.6500488,12.7131478 L10.6500488,7.51360872 Z M8.64490737,4.54046804 C8.64490737,5.01063913 8.90765003,5.1627533 9.26719262,5.1627533 L10.0277635,5.1627533 C10.3873061,5.1627533 10.6500488,5.01063913 10.6500488,4.54046804 L10.6500488,3.90435422 C10.6500488,3.43418314 10.3873061,3.28206897 10.0277635,3.28206897 L9.26719262,3.28206897 C8.90765003,3.28206897 8.64490737,3.43418314 8.64490737,3.90435422 L8.64490737,4.54046804 Z" id="i" stroke="#FFFFFF" stroke-width="0.25" fill="#FFFFFF"></path>
                        </g>
                    </g>
                </g>
            </g>
        </g>
    </g>
</svg>